<svg width="1928" height="378" viewBox="0 0 1928 378" fill="none" xmlns="http://www.w3.org/2000/svg">
<path d="M250.536 123.584C250.536 125.504 249.576 126.464 247.656 126.464H135.336C134.568 126.464 134.184 126.848 134.184 127.616V213.728C134.184 214.496 134.568 214.88 135.336 214.88H216.264C218.184 214.88 219.144 215.84 219.144 217.76V220.064C219.144 221.984 218.184 222.944 216.264 222.944H135.336C134.568 222.944 134.184 223.328 134.184 224.096V317.12C134.184 319.04 133.224 320 131.304 320H128.424C126.504 320 125.544 319.04 125.544 317.12V121.28C125.544 119.36 126.504 118.4 128.424 118.4H247.656C249.576 118.4 250.536 119.36 250.536 121.28V123.584ZM293.518 320C291.598 320 290.638 319.04 290.638 317.12V121.28C290.638 119.36 291.598 118.4 293.518 118.4H296.398C298.318 118.4 299.278 119.36 299.278 121.28V317.12C299.278 319.04 298.318 320 296.398 320H293.518ZM486.149 320C484.421 320 483.269 319.328 482.693 317.984L436.613 223.52C436.421 222.944 436.037 222.656 435.461 222.656H374.117C373.349 222.656 372.965 223.04 372.965 223.808V317.12C372.965 319.04 372.005 320 370.085 320H367.205C365.285 320 364.325 319.04 364.325 317.12V121.28C364.325 119.36 365.285 118.4 367.205 118.4H436.901C452.453 118.4 464.933 123.296 474.341 133.088C483.941 142.688 488.741 155.264 488.741 170.816C488.741 184.832 484.901 196.448 477.221 205.664C469.541 214.688 459.173 220.064 446.117 221.792C445.157 222.176 444.869 222.656 445.253 223.232L490.757 316.544C490.949 316.928 491.045 317.408 491.045 317.984C491.045 319.328 490.277 320 488.741 320H486.149ZM374.117 126.464C373.349 126.464 372.965 126.848 372.965 127.616V213.728C372.965 214.496 373.349 214.88 374.117 214.88H436.901C449.765 214.88 460.133 210.848 468.005 202.784C476.069 194.528 480.101 183.872 480.101 170.816C480.101 157.568 476.069 146.912 468.005 138.848C460.133 130.592 449.765 126.464 436.901 126.464H374.117ZM665.668 123.584C665.668 125.504 664.708 126.464 662.788 126.464H550.18C549.412 126.464 549.028 126.848 549.028 127.616V213.728C549.028 214.496 549.412 214.88 550.18 214.88H631.396C633.316 214.88 634.276 215.84 634.276 217.76V220.064C634.276 221.984 633.316 222.944 631.396 222.944H550.18C549.412 222.944 549.028 223.328 549.028 224.096V310.784C549.028 311.552 549.412 311.936 550.18 311.936H662.788C664.708 311.936 665.668 312.896 665.668 314.816V317.12C665.668 319.04 664.708 320 662.788 320H543.268C541.348 320 540.388 319.04 540.388 317.12V121.28C540.388 119.36 541.348 118.4 543.268 118.4H662.788C664.708 118.4 665.668 119.36 665.668 121.28V123.584ZM845.715 118.4C846.675 118.4 847.443 118.784 848.019 119.552C848.787 120.128 849.171 120.896 849.171 121.856V156.128C849.171 157.088 848.787 157.952 848.019 158.72C847.443 159.296 846.675 159.584 845.715 159.584H795.315C794.355 159.584 793.875 160.064 793.875 161.024V316.544C793.875 317.504 793.491 318.368 792.723 319.136C792.147 319.712 791.379 320 790.419 320H749.523C748.563 320 747.699 319.712 746.931 319.136C746.355 318.368 746.067 317.504 746.067 316.544V161.024C746.067 160.064 745.587 159.584 744.627 159.584H695.955C694.995 159.584 694.131 159.296 693.363 158.72C692.787 157.952 692.499 157.088 692.499 156.128V121.856C692.499 120.896 692.787 120.128 693.363 119.552C694.131 118.784 694.995 118.4 695.955 118.4H845.715ZM977.862 320C975.942 320 974.598 319.136 973.83 317.408L939.846 240.8C939.462 240.032 938.886 239.648 938.118 239.648H919.11C918.15 239.648 917.67 240.128 917.67 241.088V316.544C917.67 317.504 917.286 318.368 916.518 319.136C915.942 319.712 915.174 320 914.214 320H873.318C872.358 320 871.494 319.712 870.726 319.136C870.15 318.368 869.862 317.504 869.862 316.544V121.856C869.862 120.896 870.15 120.128 870.726 119.552C871.494 118.784 872.358 118.4 873.318 118.4H958.854C971.526 118.4 982.662 120.992 992.262 126.176C1001.86 131.36 1009.25 138.752 1014.44 148.352C1019.81 157.76 1022.5 168.608 1022.5 180.896C1022.5 193.76 1019.33 204.896 1013 214.304C1006.66 223.712 997.83 230.528 986.502 234.752C985.542 235.136 985.254 235.808 985.638 236.768L1023.65 315.968C1024.04 316.736 1024.23 317.312 1024.23 317.696C1024.23 319.232 1023.17 320 1021.06 320H977.862ZM919.11 159.296C918.15 159.296 917.67 159.776 917.67 160.736V201.632C917.67 202.592 918.15 203.072 919.11 203.072H951.078C958.182 203.072 963.942 201.152 968.358 197.312C972.774 193.28 974.982 188 974.982 181.472C974.982 174.752 972.774 169.376 968.358 165.344C963.942 161.312 958.182 159.296 951.078 159.296H919.11ZM1180.35 320C1178.24 320 1176.9 319.04 1176.32 317.12L1168.83 291.488C1168.45 290.72 1167.97 290.336 1167.39 290.336H1101.73C1101.15 290.336 1100.67 290.72 1100.29 291.488L1092.8 317.12C1092.23 319.04 1090.88 320 1088.77 320H1044.71C1043.55 320 1042.69 319.712 1042.11 319.136C1041.54 318.368 1041.44 317.312 1041.83 315.968L1103.46 121.28C1104.03 119.36 1105.28 118.4 1107.2 118.4H1161.63C1163.55 118.4 1164.8 119.36 1165.38 121.28L1227.3 315.968C1227.49 316.352 1227.59 316.832 1227.59 317.408C1227.59 319.136 1226.53 320 1224.42 320H1180.35ZM1111.81 251.744C1111.62 252.896 1112 253.472 1112.96 253.472H1155.87C1157.03 253.472 1157.41 252.896 1157.03 251.744L1135.14 177.728C1134.95 176.96 1134.66 176.672 1134.27 176.864C1133.89 176.864 1133.6 177.152 1133.41 177.728L1111.81 251.744ZM1315.41 322.304C1300.05 322.304 1286.51 319.328 1274.8 313.376C1263.28 307.424 1254.26 298.976 1247.73 288.032C1241.39 277.088 1238.23 264.416 1238.23 250.016V187.808C1238.23 173.6 1241.39 161.12 1247.73 150.368C1254.26 139.424 1263.28 130.976 1274.8 125.024C1286.51 119.072 1300.05 116.096 1315.41 116.096C1330.77 116.096 1344.21 118.976 1355.73 124.736C1367.44 130.304 1376.47 138.272 1382.8 148.64C1389.33 158.816 1392.59 170.624 1392.59 184.064C1392.59 185.024 1392.21 185.792 1391.44 186.368C1390.87 186.944 1390.1 187.232 1389.14 187.232L1348.24 189.824C1345.94 189.824 1344.79 188.768 1344.79 186.656C1344.79 177.632 1342.1 170.432 1336.72 165.056C1331.35 159.68 1324.24 156.992 1315.41 156.992C1306.58 156.992 1299.47 159.776 1294.1 165.344C1288.72 170.72 1286.03 177.824 1286.03 186.656V252.032C1286.03 260.864 1288.72 267.968 1294.1 273.344C1299.47 278.72 1306.58 281.408 1315.41 281.408C1324.24 281.408 1331.35 278.72 1336.72 273.344C1342.1 267.968 1344.79 260.864 1344.79 252.032C1344.79 249.92 1345.94 248.864 1348.24 248.864L1389.14 250.88C1390.1 250.88 1390.87 251.168 1391.44 251.744C1392.21 252.32 1392.59 252.992 1392.59 253.76C1392.59 267.392 1389.33 279.392 1382.8 289.76C1376.47 300.128 1367.44 308.192 1355.73 313.952C1344.21 319.52 1330.77 322.304 1315.41 322.304ZM1420.35 320C1419.39 320 1418.53 319.712 1417.76 319.136C1417.18 318.368 1416.89 317.504 1416.89 316.544V121.856C1416.89 120.896 1417.18 120.128 1417.76 119.552C1418.53 118.784 1419.39 118.4 1420.35 118.4H1461.25C1462.21 118.4 1462.97 118.784 1463.55 119.552C1464.32 120.128 1464.7 120.896 1464.7 121.856V196.736C1464.7 197.312 1464.89 197.696 1465.28 197.888C1465.66 197.888 1466.05 197.696 1466.43 197.312L1524.61 120.416C1525.76 119.072 1527.1 118.4 1528.64 118.4H1575.29C1577.21 118.4 1578.17 119.072 1578.17 120.416C1578.17 120.992 1577.89 121.76 1577.31 122.72L1515.1 205.952C1514.72 206.72 1514.62 207.392 1514.81 207.968L1579.9 315.968C1580.29 317.12 1580.48 317.792 1580.48 317.984C1580.48 319.328 1579.52 320 1577.6 320H1531.81C1529.69 320 1528.25 319.232 1527.49 317.696L1482.27 240.8C1481.69 239.648 1481.02 239.648 1480.25 240.8L1465.28 261.248C1464.89 262.016 1464.7 262.592 1464.7 262.976V316.544C1464.7 317.504 1464.32 318.368 1463.55 319.136C1462.97 319.712 1462.21 320 1461.25 320H1420.35ZM1741.72 155.84C1741.72 156.8 1741.33 157.664 1740.56 158.432C1739.99 159.008 1739.22 159.296 1738.26 159.296H1647.83C1646.87 159.296 1646.39 159.776 1646.39 160.736V196.16C1646.39 197.12 1646.87 197.6 1647.83 197.6H1705.72C1706.68 197.6 1707.44 197.984 1708.02 198.752C1708.79 199.328 1709.17 200.096 1709.17 201.056V234.752C1709.17 235.712 1708.79 236.576 1708.02 237.344C1707.44 237.92 1706.68 238.208 1705.72 238.208H1647.83C1646.87 238.208 1646.39 238.688 1646.39 239.648V277.664C1646.39 278.624 1646.87 279.104 1647.83 279.104H1738.26C1739.22 279.104 1739.99 279.488 1740.56 280.256C1741.33 280.832 1741.72 281.6 1741.72 282.56V316.544C1741.72 317.504 1741.33 318.368 1740.56 319.136C1739.99 319.712 1739.22 320 1738.26 320H1602.04C1601.08 320 1600.21 319.712 1599.44 319.136C1598.87 318.368 1598.58 317.504 1598.58 316.544V121.856C1598.58 120.896 1598.87 120.128 1599.44 119.552C1600.21 118.784 1601.08 118.4 1602.04 118.4H1738.26C1739.22 118.4 1739.99 118.784 1740.56 119.552C1741.33 120.128 1741.72 120.896 1741.72 121.856V155.84ZM1872.8 320C1870.88 320 1869.54 319.136 1868.77 317.408L1834.78 240.8C1834.4 240.032 1833.82 239.648 1833.06 239.648H1814.05C1813.09 239.648 1812.61 240.128 1812.61 241.088V316.544C1812.61 317.504 1812.22 318.368 1811.46 319.136C1810.88 319.712 1810.11 320 1809.15 320H1768.26C1767.3 320 1766.43 319.712 1765.66 319.136C1765.09 318.368 1764.8 317.504 1764.8 316.544V121.856C1764.8 120.896 1765.09 120.128 1765.66 119.552C1766.43 118.784 1767.3 118.4 1768.26 118.4H1853.79C1866.46 118.4 1877.6 120.992 1887.2 126.176C1896.8 131.36 1904.19 138.752 1909.38 148.352C1914.75 157.76 1917.44 168.608 1917.44 180.896C1917.44 193.76 1914.27 204.896 1907.94 214.304C1901.6 223.712 1892.77 230.528 1881.44 234.752C1880.48 235.136 1880.19 235.808 1880.58 236.768L1918.59 315.968C1918.98 316.736 1919.17 317.312 1919.17 317.696C1919.17 319.232 1918.11 320 1916 320H1872.8ZM1814.05 159.296C1813.09 159.296 1812.61 159.776 1812.61 160.736V201.632C1812.61 202.592 1813.09 203.072 1814.05 203.072H1846.02C1853.12 203.072 1858.88 201.152 1863.3 197.312C1867.71 193.28 1869.92 188 1869.92 181.472C1869.92 174.752 1867.71 169.376 1863.3 165.344C1858.88 161.312 1853.12 159.296 1846.02 159.296H1814.05Z" fill="#3273DC"/>
<circle cx="61" cy="57" r="57" fill="#C4C4C4"/>
<g style="mix-blend-mode:multiply" filter="url(#filter0_d)">
<ellipse cx="61" cy="57" rx="57" ry="57" transform="rotate(-90 61 57)" fill="#3273DC"/>
</g>
<g style="mix-blend-mode:multiply">
<circle cx="61" cy="138" r="57" fill="#66A0FF"/>
</g>
<g style="mix-blend-mode:multiply">
<ellipse cx="144.5" cy="57" rx="57" ry="56.5" transform="rotate(-90 144.5 57)" fill="#66A0FF"/>
</g>
<g style="mix-blend-mode:multiply">
<ellipse cx="61" cy="210.5" rx="57" ry="56.5" fill="#B6D2FF"/>
</g>
<g style="mix-blend-mode:multiply">
<ellipse cx="226" cy="57" rx="57" ry="57" transform="rotate(-90 226 57)" fill="#B6D2FF"/>
</g>
<g style="mix-blend-mode:multiply">
<ellipse cx="145" cy="138" rx="57" ry="57" transform="rotate(-90 145 138)" fill="#B6D2FF"/>
</g>
<defs>
<filter id="filter0_d" x="0" y="0" width="122" height="122" filterUnits="userSpaceOnUse" color-interpolation-filters="sRGB">
<feFlood flood-opacity="0" result="BackgroundImageFix"/>
<feColorMatrix in="SourceAlpha" type="matrix" values="0 0 0 0 0 0 0 0 0 0 0 0 0 0 0 0 0 0 127 0"/>
<feOffset dy="4"/>
<feGaussianBlur stdDeviation="2"/>
<feColorMatrix type="matrix" values="0 0 0 0 0 0 0 0 0 0 0 0 0 0 0 0 0 0 0.25 0"/>
<feBlend mode="normal" in2="BackgroundImageFix" result="effect1_dropShadow"/>
<feBlend mode="normal" in="SourceGraphic" in2="effect1_dropShadow" result="shape"/>
</filter>
</defs>
</svg>
